{"glyphs":{":":{"x_min":0,"x_max":188,"ha":188,"o":"m 103 327 q 124 327 138 312 q 152 297 152 276 q 152 255 138 241 q 124 227 103 227 q 82 227 68 241 q 53 256 53 277 q 53 297 68 312 q 82 327 102 327 z m 104 96 q 124 96 138 82 q 152 67 152 47 q 152 26 138 11 q 124 -4 104 -4 q 83 -4 69 10 q 54 25 54 45 q 54 66 69 81 q 83 96 103 96 z"},"$":{"x_min":0,"x_max":365,"ha":365,"o":"m 205 360 q 288 308 315 267 q 342 227 342 166 q 342 91 306 45 q 270 -1 205 -6 l 205 -61 l 170 -61 l 170 -7 q 122 -7 94 15 q 65 37 45 89 l 110 121 q 126 73 170 68 l 170 280 q 101 323 70 369 q 39 415 39 475 q 39 615 170 632 l 170 676 l 204 676 l 204 632 q 308 632 336 539 l 265 503 q 247 556 205 559 z m 170 386 l 170 558 q 120 542 120 478 q 120 415 170 386 z m 205 71 q 259 90 259 163 q 259 224 205 257 z"},"?":{"x_min":0,"x_max":323,"ha":323,"o":"m 57 480 q 54 575 84 604 q 114 633 162 633 q 234 633 260 600 q 287 568 287 480 q 287 410 282 370 q 277 331 258 309 q 238 287 195 279 l 195 148 l 125 148 l 125 325 q 177 325 196 349 q 215 372 215 448 l 215 481 q 215 530 206 550 q 197 570 171 570 q 146 570 137 550 q 127 529 127 480 z m 160 87 q 179 87 192 74 q 206 61 206 42 q 206 23 192 10 q 179 -3 161 -3 q 141 -3 128 9 q 115 21 115 39 q 115 60 128 73 q 140 87 158 87 z"},"<":{"x_min":0,"x_max":667,"ha":667,"o":"m 598 72 l 69 295 l 69 353 l 598 576 l 598 506 l 155 324 l 598 141 z"},"'":{"x_min":0,"x_max":191,"ha":191,"o":"m 146 596 l 122 462 l 68 462 l 45 596 l 45 716 l 146 716 z"},"=":{"x_min":0,"x_max":667,"ha":667,"o":"m 599 407 l 68 407 l 68 472 l 599 472 z m 599 179 l 68 179 l 68 243 l 599 243 z"},"a":{"x_min":0,"x_max":365,"ha":365,"o":"m 320 0 l 240 0 l 240 52 l 238 52 q 207 -6 158 -6 q 117 -6 85 33 q 53 72 53 207 q 53 327 77 380 q 101 433 159 433 q 187 433 203 420 q 220 408 238 380 l 240 380 l 240 427 l 320 427 z m 189 64 q 220 64 230 101 q 240 137 240 225 q 240 302 231 334 q 222 365 192 365 q 162 365 151 336 q 139 307 139 230 q 139 140 148 102 q 157 64 189 64 z"},"L":{"x_min":0,"x_max":323,"ha":323,"o":"m 292 0 l 67 0 l 67 622 l 151 622 l 151 70 l 292 70 z"},"3":{"x_min":0,"x_max":365,"ha":365,"o":"m 263 328 q 298 309 313 279 q 328 250 328 179 q 328 81 294 37 q 259 -6 180 -6 q 106 -6 78 34 q 50 74 49 161 l 128 161 q 129 67 184 67 q 214 67 228 91 q 241 116 241 169 q 241 249 220 270 q 200 292 149 291 l 149 365 q 205 365 223 385 q 241 405 241 465 q 241 515 230 537 q 219 559 193 559 q 164 559 154 537 q 144 514 143 466 l 63 466 q 64 559 95 596 q 127 634 194 634 q 265 634 296 595 q 327 556 327 468 q 327 397 313 371 q 298 345 263 328 z"},";":{"x_min":0,"x_max":188,"ha":188,"o":"m 123 334 q 143 334 158 319 q 173 305 173 285 q 173 263 158 248 q 144 233 122 233 q 102 233 88 248 q 73 263 73 284 q 73 304 88 319 q 103 334 122 334 z m 161 92 l 69 -128 l 30 -113 l 98 117 z"},"J":{"x_min":0,"x_max":271,"ha":271,"o":"m 226 112 q 226 -9 107 -9 q 80 -9 26 3 l 26 79 q 69 62 92 62 q 115 62 129 79 q 142 96 142 125 l 142 622 l 226 622 z"},"V":{"x_min":0,"x_max":365,"ha":365,"o":"m 29 622 l 110 622 l 188 151 l 272 622 l 352 622 l 221 0 l 155 0 z"},"\"":{"x_min":0,"x_max":355,"ha":355,"o":"m 309 599 l 285 462 l 232 462 l 209 599 l 209 716 l 309 716 z m 147 599 l 124 462 l 71 462 l 46 599 l 46 716 l 147 716 z"},"7":{"x_min":0,"x_max":365,"ha":365,"o":"m 349 622 l 170 0 l 88 1 l 245 545 l 78 545 l 78 622 z"},"S":{"x_min":0,"x_max":323,"ha":323,"o":"m 272 542 q 231 564 198 564 q 166 564 142 541 q 119 517 119 484 q 119 460 133 434 q 146 407 195 349 q 244 291 269 248 q 295 205 295 149 q 295 80 253 36 q 211 -7 144 -7 q 107 -7 53 15 l 53 90 q 55 89 56 88 q 63 83 87 72 q 110 61 133 61 q 169 61 193 85 q 217 110 217 148 q 217 174 205 197 q 193 219 161 258 l 105 327 q 72 367 57 400 q 41 433 41 479 q 41 547 81 589 q 120 632 183 632 q 227 632 272 610 z"},"}":{"x_min":0,"x_max":334,"ha":334,"o":"m 306 188 q 273 188 248 170 q 222 152 213 117 q 205 83 205 -26 q 204 -134 191 -163 q 179 -191 154 -216 q 128 -241 50 -241 l 23 -241 l 23 -165 l 38 -165 q 91 -165 107 -146 q 122 -126 122 -64 l 122 7 q 122 110 146 158 q 169 206 224 228 q 160 257 141 307 q 122 357 122 448 l 122 520 q 122 583 107 602 q 91 621 38 621 l 23 621 l 23 697 l 50 697 q 129 697 155 671 q 181 645 192 617 q 204 590 205 482 q 205 373 214 338 q 222 303 248 286 q 274 268 306 268 z"},"Z":{"x_min":0,"x_max":365,"ha":365,"o":"m 339 622 l 141 70 l 320 70 l 320 0 l 39 0 l 236 551 l 63 551 l 63 622 z"},"x":{"x_min":0,"x_max":365,"ha":365,"o":"m 345 0 l 265 0 l 188 141 l 113 0 l 32 0 l 147 218 l 38 427 l 119 427 l 188 297 l 257 427 l 339 427 l 229 219 z"},")":{"x_min":0,"x_max":188,"ha":188,"o":"m 83 646 q 129 556 155 438 q 181 321 181 228 q 181 140 153 15 q 125 -109 81 -185 l 21 -154 q 68 -54 89 46 q 110 146 110 218 q 110 309 88 414 q 67 518 21 614 z"},"&":{"x_min":0,"x_max":458,"ha":458,"o":"m 429 2 l 335 2 l 311 41 q 245 -7 191 -7 q 132 -7 91 36 q 51 78 51 141 q 51 215 148 305 q 93 391 93 458 q 93 509 129 544 q 165 579 217 579 q 274 579 306 548 q 337 517 337 460 q 337 392 245 301 l 329 162 q 358 200 376 232 l 428 198 q 394 137 367 103 z m 206 363 q 262 430 262 469 q 262 488 250 501 q 237 514 218 514 q 198 514 182 498 q 167 481 167 460 q 167 420 206 363 z m 274 101 l 185 240 q 135 191 135 147 q 135 115 155 92 q 175 68 202 68 q 236 68 274 101 z"},"_":{"x_min":0,"x_max":500,"ha":500,"o":"m 507 -124 l -7 -124 l -7 -74 l 507 -74 z"},"v":{"x_min":0,"x_max":365,"ha":365,"o":"m 44 427 l 124 427 l 189 125 l 255 427 l 333 427 l 217 0 l 163 0 z"},"O":{"x_min":0,"x_max":458,"ha":458,"o":"m 64 313 q 64 516 104 575 q 144 635 235 635 q 339 635 374 568 q 408 501 408 328 q 408 173 393 113 q 377 53 340 24 q 302 -4 237 -4 q 170 -4 134 22 q 99 48 81 107 q 64 166 64 313 z m 320 308 q 320 485 299 527 q 278 569 237 569 q 188 569 170 519 q 152 469 152 350 l 152 316 q 152 184 167 123 q 181 62 237 62 q 271 62 295 96 q 320 130 320 285 z"},"(":{"x_min":0,"x_max":188,"ha":188,"o":"m 180 -155 l 119 -188 q 72 -104 45 18 q 18 141 18 228 q 18 315 42 429 q 66 542 117 646 l 179 616 q 90 412 90 233 q 90 142 112 37 q 134 -67 180 -155 z"},"C":{"x_min":0,"x_max":365,"ha":365,"o":"m 326 11 q 289 -7 251 -7 q 176 -7 121 51 q 66 109 66 294 q 66 494 121 563 q 176 633 254 633 q 283 633 326 623 l 326 547 q 298 558 273 558 q 224 558 189 509 q 155 459 155 313 q 155 226 162 177 q 170 128 197 99 q 225 70 266 70 q 291 70 326 85 z"},"W":{"x_min":0,"x_max":552,"ha":552,"o":"m 532 622 l 425 0 l 358 0 l 283 439 l 281 439 l 208 0 l 142 0 l 38 622 l 111 622 l 180 192 l 182 192 l 257 622 l 314 622 l 385 194 l 387 194 l 458 622 z"},"A":{"x_min":0,"x_max":417,"ha":417,"o":"m 387 0 l 306 0 l 283 123 l 152 123 l 129 0 l 49 0 l 183 622 l 252 622 z m 272 186 l 218 481 l 216 481 l 164 186 z"},"f":{"x_min":0,"x_max":229,"ha":229,"o":"m 218 566 q 211 572 190 572 q 151 572 151 512 l 151 427 l 217 427 l 217 366 l 151 366 l 151 0 l 72 0 l 72 366 l 29 366 l 29 427 l 72 427 l 72 518 q 72 643 167 643 q 196 643 218 637 z"},"Q":{"x_min":0,"x_max":458,"ha":458,"o":"m 318 6 q 265 -7 232 -7 q 137 -7 101 59 q 65 125 65 286 q 65 438 80 507 q 95 576 134 605 q 173 635 242 635 q 331 635 370 574 q 410 513 410 310 q 410 96 363 43 l 409 -21 l 363 -55 z m 306 118 q 321 149 321 302 q 321 482 301 524 q 282 567 238 567 q 188 567 171 517 q 154 467 154 348 q 154 142 174 101 q 193 61 233 61 q 253 61 271 68 l 214 145 l 262 180 z"},"w":{"x_min":0,"x_max":510,"ha":510,"o":"m 481 427 l 376 0 l 320 0 l 267 261 l 265 261 l 212 0 l 159 0 l 53 427 l 127 427 l 187 142 l 189 142 l 246 427 l 287 427 l 347 141 l 349 141 l 406 427 z"},"-":{"x_min":0,"x_max":229,"ha":229,"o":"m 202 187 l 43 187 l 43 248 l 202 248 z"},"E":{"x_min":0,"x_max":323,"ha":323,"o":"m 294 0 l 69 0 l 69 622 l 290 622 l 290 551 l 152 551 l 152 354 l 280 354 l 280 283 l 152 283 l 152 69 l 294 69 z"},"s":{"x_min":0,"x_max":316,"ha":316,"o":"m 263 354 q 227 369 200 369 q 175 369 159 356 q 144 344 144 322 q 144 304 157 287 q 170 270 210 235 q 250 200 267 173 q 284 145 284 112 q 284 62 250 28 q 216 -5 163 -5 q 129 -5 83 13 l 83 79 q 127 61 158 61 q 181 61 194 73 q 207 86 207 107 q 207 126 190 148 q 173 170 130 205 q 69 254 69 318 q 69 368 103 402 q 136 435 186 435 q 217 435 263 419 z"},">":{"x_min":0,"x_max":667,"ha":667,"o":"m 598 295 l 68 72 l 68 141 l 512 323 l 68 506 l 68 576 l 598 352 z"},"l":{"x_min":0,"x_max":188,"ha":188,"o":"m 143 0 l 63 0 l 63 644 l 143 644 z"},"8":{"x_min":0,"x_max":365,"ha":365,"o":"m 248 337 q 292 314 309 277 q 326 239 326 171 q 326 78 293 35 q 260 -7 187 -7 q 50 -7 50 172 q 50 244 69 281 q 88 317 130 335 q 94 354 79 382 q 64 410 64 473 q 64 556 93 594 q 121 632 184 632 q 251 632 283 596 q 314 561 314 483 q 314 415 299 385 q 284 354 248 337 z m 187 369 q 213 369 224 393 q 234 416 234 470 q 234 517 224 537 q 213 558 189 558 q 162 558 153 538 q 143 517 143 468 q 143 415 153 392 q 162 369 187 369 z m 191 67 q 239 67 239 168 q 239 237 229 267 q 218 296 189 296 q 161 296 150 272 q 139 248 139 193 q 139 124 150 95 q 160 67 191 67 z"},"\\":{"x_min":0,"x_max":271,"ha":271,"o":"m 240 -188 l 204 -188 l 14 643 l 52 643 z"},"e":{"x_min":0,"x_max":365,"ha":365,"o":"m 322 199 l 142 199 q 142 130 152 94 q 161 59 197 59 q 224 59 234 80 q 244 100 244 144 l 317 144 q 313 -6 190 -6 q 57 -6 57 204 q 57 433 195 433 q 247 433 284 394 q 322 354 322 230 z m 241 261 q 241 325 231 352 q 221 380 194 380 q 162 380 152 351 q 142 322 142 261 z"},"b":{"x_min":0,"x_max":365,"ha":365,"o":"m 62 644 l 142 644 l 142 370 l 144 370 q 167 434 227 434 q 272 434 301 392 q 330 350 330 230 q 330 83 304 39 q 278 -5 224 -5 q 172 -5 143 59 l 141 59 l 141 0 l 62 0 z m 245 198 q 245 289 235 328 q 224 366 192 366 q 165 366 153 335 q 141 304 141 235 q 141 142 152 102 q 163 63 194 63 q 222 63 233 95 q 245 127 245 198 z"},"%":{"x_min":0,"x_max":688,"ha":688,"o":"m 552 638 l 210 -35 l 163 -35 l 502 638 z m 163 635 q 206 635 233 599 q 260 563 260 431 q 260 315 232 275 q 205 234 162 234 q 122 234 95 273 q 69 313 69 440 q 69 564 99 600 q 129 635 162 635 z m 131 433 q 130 420 130 395 q 130 336 137 311 q 144 286 161 286 q 182 286 190 319 q 199 351 199 423 q 199 519 193 551 q 186 582 166 582 q 155 582 146 571 q 138 560 137 543 z m 552 372 q 603 372 624 323 q 645 275 645 164 q 645 -30 545 -30 q 505 -30 480 7 q 454 43 454 162 q 454 308 487 340 q 520 372 552 372 z m 581 169 q 582 183 582 212 q 582 271 577 295 q 571 319 552 319 q 531 319 523 288 q 514 258 514 190 q 514 84 520 54 q 525 25 546 25 q 558 25 566 34 q 574 44 575 60 z"},"m":{"x_min":0,"x_max":552,"ha":552,"o":"m 503 0 l 423 0 l 423 311 q 423 373 375 373 q 323 373 323 299 l 323 0 l 244 0 l 244 317 q 244 341 231 357 q 217 373 197 373 q 144 373 144 305 l 144 0 l 64 0 l 64 427 l 145 427 l 145 388 q 183 434 234 434 q 291 434 317 381 q 357 433 413 433 q 503 433 503 330 z"},"#":{"x_min":0,"x_max":668,"ha":668,"o":"m 624 174 l 466 174 l 425 -22 l 365 -22 l 407 174 l 200 174 l 159 -22 l 99 -22 l 140 174 l 44 174 l 44 234 l 153 234 l 191 415 l 44 415 l 44 475 l 203 475 l 245 672 l 304 672 l 262 475 l 468 475 l 509 672 l 569 672 l 527 475 l 624 475 l 624 415 l 515 415 l 478 234 l 624 234 z m 456 415 l 250 415 l 212 235 l 419 235 z"},",":{"x_min":0,"x_max":188,"ha":188,"o":"m 171 88 l 77 -131 l 39 -118 l 108 113 z"},"n":{"x_min":0,"x_max":365,"ha":365,"o":"m 140 428 l 140 387 l 142 387 q 173 434 225 434 q 318 434 318 333 l 318 0 l 239 0 l 239 310 q 239 373 189 373 q 166 373 153 356 q 139 339 139 310 l 139 0 l 59 0 l 59 428 z"},"h":{"x_min":0,"x_max":365,"ha":365,"o":"m 321 0 l 242 0 l 242 310 q 242 371 193 371 q 142 371 142 303 l 142 0 l 61 0 l 61 643 l 142 643 l 142 391 q 184 433 230 433 q 321 433 321 335 z"},"z":{"x_min":0,"x_max":323,"ha":323,"o":"m 300 427 l 148 61 l 285 61 l 285 0 l 41 0 l 190 365 l 47 365 l 47 427 z"},"B":{"x_min":0,"x_max":365,"ha":365,"o":"m 69 622 l 167 622 q 247 622 285 583 q 323 543 323 460 q 323 342 233 310 q 331 290 331 155 q 331 81 295 40 q 260 0 194 0 l 69 0 z m 152 558 l 152 342 q 200 343 221 367 q 243 390 243 448 q 243 511 224 535 q 206 558 152 558 z m 152 280 l 152 63 q 202 64 223 85 q 244 105 244 166 q 244 230 223 255 q 201 279 152 280 z"},"K":{"x_min":0,"x_max":417,"ha":417,"o":"m 388 0 l 292 0 l 157 316 l 155 316 l 155 0 l 70 0 l 70 622 l 155 622 l 155 314 l 157 314 l 302 622 l 387 622 l 236 320 z"},"R":{"x_min":0,"x_max":365,"ha":365,"o":"m 343 0 l 256 0 l 158 292 l 151 292 l 151 0 l 67 0 l 67 622 l 183 622 q 325 622 325 463 q 325 391 304 354 q 283 317 236 299 z m 151 349 q 200 350 221 372 q 243 395 243 453 q 243 509 223 533 q 204 557 156 557 l 151 557 z"},"T":{"x_min":0,"x_max":323,"ha":323,"o":"m 306 551 l 211 551 l 211 0 l 127 0 l 127 551 l 32 551 l 32 622 l 306 622 z"},"P":{"x_min":0,"x_max":365,"ha":365,"o":"m 64 622 l 201 622 q 335 622 335 446 q 335 375 311 335 q 288 295 252 284 q 217 274 148 273 l 148 0 l 64 0 z m 148 338 q 201 338 224 359 q 247 381 247 446 q 247 511 227 535 q 207 558 148 558 z"},"|":{"x_min":0,"x_max":527,"ha":527,"o":"m 296 -135 l 231 -135 l 231 696 l 296 696 z"},"t":{"x_min":0,"x_max":229,"ha":229,"o":"m 213 364 l 161 364 l 161 0 l 81 0 l 81 364 l 30 364 l 30 427 l 81 427 l 81 543 l 161 543 l 161 427 l 213 427 z"},"M":{"x_min":0,"x_max":510,"ha":510,"o":"m 487 0 l 409 0 l 378 398 l 376 398 l 291 0 l 239 0 l 158 398 l 156 398 l 123 0 l 45 0 l 106 622 l 178 622 l 265 186 l 267 186 l 356 622 l 428 622 z"},"g":{"x_min":0,"x_max":365,"ha":365,"o":"m 318 -54 q 318 -121 288 -151 q 257 -181 189 -181 q 118 -181 87 -154 q 56 -126 57 -53 l 133 -53 q 137 -123 188 -123 q 239 -123 239 -71 l 239 57 l 237 57 q 214 -6 154 -6 q 113 -6 85 34 q 57 73 57 222 q 57 356 83 395 q 108 433 155 433 q 188 433 204 421 q 220 410 237 384 l 239 384 l 239 427 l 318 427 z m 191 68 q 219 68 229 98 q 239 129 239 201 q 239 304 230 337 q 221 369 191 369 q 164 369 152 338 q 141 306 141 237 q 141 145 149 106 q 158 68 191 68 z"},"j":{"x_min":0,"x_max":188,"ha":188,"o":"m 56 557 q 56 575 69 588 q 83 601 101 601 q 119 601 132 588 q 145 575 145 557 q 145 539 132 526 q 119 513 101 513 q 83 513 69 526 q 56 539 56 557 z m 62 427 l 141 427 l 141 -189 l 62 -189 z"},"i":{"x_min":0,"x_max":188,"ha":188,"o":"m 59 557 q 59 575 72 588 q 85 601 103 601 q 121 601 134 588 q 147 575 147 557 q 147 539 134 526 q 121 513 103 513 q 84 513 72 526 q 59 539 59 557 z m 63 427 l 142 427 l 142 0 l 63 0 z"},"y":{"x_min":0,"x_max":365,"ha":365,"o":"m 347 427 l 148 -189 l 78 -189 l 148 38 l 32 427 l 112 427 l 182 133 l 184 133 l 271 427 z"},"@":{"x_min":0,"x_max":1015,"ha":1015,"o":"m 981 9 q 940 -74 830 -142 q 720 -210 550 -210 q 320 -210 188 -93 q 57 25 57 229 q 57 365 120 486 q 183 606 290 667 q 397 729 540 729 q 733 729 846 614 q 958 500 958 356 q 958 209 864 104 q 771 -2 667 -2 q 615 -2 594 17 q 573 37 570 80 q 498 -1 422 -1 q 345 -1 294 62 q 243 124 243 220 q 243 292 280 367 q 316 443 376 486 q 435 529 496 529 q 587 529 644 439 l 660 515 l 748 515 l 670 153 q 663 120 663 111 q 663 98 673 88 q 684 79 698 79 q 723 79 771 113 q 818 147 852 213 q 885 278 885 350 q 885 482 785 570 q 686 658 535 658 q 360 658 245 538 q 129 418 129 237 q 129 60 240 -39 q 352 -138 552 -138 q 676 -138 767 -93 q 858 -48 893 9 z m 441 71 q 479 71 522 105 q 565 140 591 198 q 616 257 616 315 q 616 380 585 418 q 553 457 501 457 q 438 457 385 382 q 333 306 333 212 q 333 149 363 110 q 393 71 441 71 z"},".":{"x_min":0,"x_max":188,"ha":188,"o":"m 101 95 q 124 95 138 82 q 152 68 152 47 q 152 26 137 11 q 123 -4 103 -4 q 83 -4 68 11 q 53 26 53 47 q 53 67 67 81 q 81 95 101 95 z"},"p":{"x_min":0,"x_max":365,"ha":365,"o":"m 145 380 q 165 408 183 420 q 201 433 226 433 q 283 433 307 382 q 331 332 331 217 q 331 87 306 40 q 281 -7 227 -7 q 204 -7 188 4 q 171 14 147 47 l 145 47 l 145 -189 l 65 -189 l 65 427 l 143 427 l 143 380 z m 193 62 q 222 62 234 95 q 246 129 246 204 q 246 292 235 328 q 224 365 193 365 q 165 365 154 335 q 144 304 144 231 q 144 140 152 101 q 160 62 193 62 z"},"X":{"x_min":0,"x_max":365,"ha":365,"o":"m 349 0 l 270 0 l 188 213 l 105 0 l 24 0 l 147 321 l 33 622 l 114 622 l 188 427 l 263 622 l 345 622 l 229 320 z"},"*":{"x_min":0,"x_max":329,"ha":329,"o":"m 198 484 q 211 477 246 471 q 280 466 293 457 q 306 449 306 431 q 306 417 297 407 q 287 398 273 398 q 253 398 229 429 q 206 460 190 469 l 181 466 q 182 446 195 419 q 208 392 208 374 q 208 360 198 350 q 188 341 172 341 q 163 341 152 351 q 142 362 142 374 q 142 386 154 417 q 166 447 166 467 l 160 472 q 147 465 123 432 q 98 398 75 398 q 62 398 52 409 q 42 419 42 432 q 42 449 54 457 q 67 465 99 469 q 131 473 151 484 l 151 494 q 135 502 103 506 q 70 510 56 520 q 42 529 42 548 q 42 560 52 570 q 63 579 77 579 q 95 579 119 548 q 144 517 158 507 l 166 511 q 166 527 154 558 q 141 589 141 603 q 141 617 150 626 q 159 636 172 636 q 206 636 206 602 q 206 591 194 558 q 182 533 182 520 l 182 511 l 190 507 q 208 520 231 549 q 254 579 275 579 q 288 579 297 569 q 306 560 306 546 q 306 528 293 520 q 280 511 249 507 q 218 503 199 494 z"},"Y":{"x_min":0,"x_max":365,"ha":365,"o":"m 352 622 l 231 265 l 231 0 l 147 0 l 147 261 l 29 622 l 112 622 l 189 343 l 191 343 l 269 622 z"},"c":{"x_min":0,"x_max":271,"ha":271,"o":"m 249 13 q 209 -6 177 -6 q 111 -6 81 48 q 51 102 51 217 q 51 339 89 387 q 128 434 179 434 q 205 434 248 419 l 248 351 q 220 364 203 364 q 168 364 153 326 q 137 289 137 209 q 137 64 200 64 q 218 64 249 79 z"},"!":{"x_min":0,"x_max":188,"ha":188,"o":"m 143 148 l 62 148 l 62 625 l 143 625 z m 103 88 q 123 88 136 75 q 149 62 149 42 q 149 22 136 9 q 123 -4 103 -4 q 84 -4 71 10 q 57 23 57 42 q 57 61 71 74 q 84 88 103 88 z"},"/":{"x_min":0,"x_max":271,"ha":271,"o":"m 257 643 l 69 -188 l 29 -188 l 218 643 z"},"[":{"x_min":0,"x_max":229,"ha":229,"o":"m 213 -176 l 69 -176 l 69 632 l 213 632 l 213 575 l 133 575 l 133 -118 l 213 -118 z"},"6":{"x_min":0,"x_max":365,"ha":365,"o":"m 163 379 q 191 392 212 392 q 267 392 298 353 q 330 314 330 201 q 330 85 295 39 q 260 -7 185 -7 q 115 -7 83 41 q 51 89 51 193 q 51 259 58 304 q 65 350 82 398 q 100 446 128 505 l 187 623 l 280 623 l 204 471 z m 140 192 q 140 123 151 94 q 162 66 192 66 q 242 66 242 168 l 241 176 l 241 186 l 242 207 l 242 217 q 242 279 227 297 q 212 315 193 315 q 162 315 151 293 q 139 271 139 217 l 140 208 z"},"r":{"x_min":0,"x_max":271,"ha":271,"o":"m 242 364 q 187 362 164 343 q 140 323 140 256 l 140 0 l 59 0 l 59 427 l 140 427 l 140 364 l 142 364 q 177 433 237 433 l 242 432 z"},"2":{"x_min":0,"x_max":365,"ha":365,"o":"m 50 422 q 48 553 85 592 q 122 631 195 631 q 327 631 327 492 q 327 443 310 385 q 292 326 248 236 l 170 76 l 309 76 l 309 0 l 37 0 l 146 215 q 149 219 155 232 q 161 245 163 250 q 205 334 223 386 q 240 438 240 484 q 240 519 227 538 q 213 557 189 557 q 151 557 142 522 q 133 487 132 422 z"},"{":{"x_min":0,"x_max":334,"ha":334,"o":"m 311 -241 l 284 -241 q 205 -241 179 -215 q 153 -188 142 -161 q 130 -134 129 -26 q 129 83 120 118 q 112 153 86 170 q 60 188 28 188 l 28 268 q 61 268 86 286 q 112 304 121 339 q 129 374 129 483 q 130 592 142 619 q 154 646 180 671 q 206 697 284 697 l 311 697 l 311 621 l 296 621 q 243 621 227 602 q 212 583 212 520 l 212 448 q 212 348 190 300 q 168 252 110 228 q 165 206 188 158 q 212 110 212 7 l 212 -64 q 212 -126 227 -146 q 242 -165 296 -165 l 311 -165 z"},"9":{"x_min":0,"x_max":365,"ha":365,"o":"m 217 244 q 182 232 162 232 q 112 232 82 272 q 51 312 51 417 q 51 499 62 541 q 74 582 106 606 q 138 631 191 631 q 263 631 295 586 q 328 542 328 411 q 328 323 310 259 q 292 195 249 110 q 206 25 195 0 l 103 0 l 118 31 q 201 202 217 244 z m 241 432 l 241 445 q 241 557 189 557 l 187 557 q 161 557 149 534 q 138 510 138 458 q 138 375 147 342 q 156 308 189 308 q 227 308 234 337 q 241 366 241 432 z"}," ":{"x_min":0,"x_max":182,"ha":182,"o":""},"I":{"x_min":0,"x_max":229,"ha":229,"o":"m 81 622 l 165 622 l 165 0 l 81 0 z"},"H":{"x_min":0,"x_max":417,"ha":417,"o":"m 69 622 l 153 622 l 153 380 l 282 380 l 282 622 l 366 622 l 366 0 l 282 0 l 282 309 l 153 309 l 153 0 l 69 0 z"},"4":{"x_min":0,"x_max":365,"ha":365,"o":"m 330 173 l 296 173 l 295 172 l 295 0 l 213 0 l 213 173 l 49 173 l 49 250 l 218 631 l 295 631 l 295 247 l 330 247 z m 214 247 l 214 470 l 212 470 l 114 247 z"},"~":{"x_min":0,"x_max":656,"ha":656,"o":"m 592 342 q 518 280 453 280 q 418 280 388 291 q 358 302 299 331 q 239 359 206 359 q 144 359 64 292 l 64 362 q 141 423 207 423 q 236 423 266 413 q 296 402 358 373 q 419 344 451 344 q 515 344 592 413 z"},"D":{"x_min":0,"x_max":417,"ha":417,"o":"m 72 622 l 193 622 q 279 622 328 557 q 378 493 378 314 q 378 142 334 71 q 291 0 178 0 l 72 0 z m 156 558 l 156 63 q 208 63 236 83 q 263 102 277 155 q 290 208 290 315 q 290 451 265 504 q 240 558 167 558 z"},"^":{"x_min":0,"x_max":469,"ha":469,"o":"m 443 337 l 354 337 l 234 629 l 116 337 l 26 337 l 199 728 l 270 728 z"},"0":{"x_min":0,"x_max":365,"ha":365,"o":"m 190 633 q 262 633 297 566 q 332 499 332 315 q 332 166 317 109 q 302 52 271 23 q 240 -7 190 -7 q 138 -7 105 29 q 72 64 60 126 q 49 188 49 331 q 49 458 63 513 q 77 568 107 601 q 138 633 189 633 z m 243 367 l 243 389 q 243 461 240 487 q 237 512 224 535 q 210 558 189 558 q 158 558 147 518 q 136 477 136 384 l 136 364 l 137 343 l 137 321 l 136 268 l 136 253 q 136 153 146 111 q 157 68 190 68 q 212 68 224 86 q 235 104 239 141 q 242 179 242 315 l 242 341 z"},"F":{"x_min":0,"x_max":323,"ha":323,"o":"m 294 551 l 151 551 l 151 355 l 279 355 l 279 284 l 151 284 l 151 0 l 68 0 l 68 622 l 294 622 z"},"`":{"x_min":0,"x_max":333,"ha":333,"o":"m 227 481 l 156 481 l 43 617 l 161 617 z"},"k":{"x_min":0,"x_max":365,"ha":365,"o":"m 347 0 l 263 0 l 144 228 l 142 228 l 142 0 l 62 0 l 62 643 l 142 643 l 142 244 l 144 244 l 250 427 l 333 427 l 225 234 z"},"u":{"x_min":0,"x_max":365,"ha":365,"o":"m 318 135 q 318 60 288 27 q 258 -6 190 -6 q 122 -6 91 27 q 60 59 60 131 l 60 428 l 139 428 l 139 130 q 139 59 190 59 q 217 59 228 77 q 239 95 239 137 l 239 428 l 318 428 z"},"]":{"x_min":0,"x_max":229,"ha":229,"o":"m 177 -177 l 34 -177 l 34 -119 l 112 -119 l 112 574 l 33 574 l 33 631 l 177 631 z"},"U":{"x_min":0,"x_max":417,"ha":417,"o":"m 364 147 q 364 -9 224 -9 q 71 -9 71 146 l 71 621 l 154 621 l 154 181 q 154 110 166 83 q 178 56 219 56 q 260 56 271 85 q 281 113 281 186 l 281 621 l 364 621 z"},"o":{"x_min":0,"x_max":365,"ha":365,"o":"m 190 434 q 251 434 288 388 q 325 341 325 208 q 325 83 286 39 q 248 -6 191 -6 q 120 -6 86 47 q 52 101 52 211 q 52 346 91 390 q 130 434 188 434 z m 240 188 q 240 297 230 333 q 220 368 189 368 q 160 368 149 340 q 138 312 138 246 q 138 117 150 88 q 162 59 190 59 q 220 59 230 88 q 240 117 240 188 z"},"N":{"x_min":0,"x_max":417,"ha":417,"o":"m 363 0 l 297 0 l 138 427 l 136 427 l 136 0 l 61 0 l 61 622 l 128 622 l 287 195 l 289 195 l 289 622 l 363 622 z"},"+":{"x_min":0,"x_max":667,"ha":667,"o":"m 599 291 l 364 291 l 364 59 l 300 59 l 300 291 l 67 291 l 67 355 l 300 355 l 300 589 l 364 589 l 364 355 l 599 355 z"},"G":{"x_min":0,"x_max":418,"ha":418,"o":"m 386 220 q 386 113 350 53 q 313 -6 220 -6 q 137 -6 100 55 q 63 117 63 291 q 63 312 67 400 q 72 489 80 520 q 89 552 109 579 q 129 606 160 619 q 190 633 232 633 q 291 633 333 597 q 375 562 380 504 l 301 475 q 291 565 232 565 q 187 565 169 518 q 151 472 151 364 l 151 332 q 151 270 155 213 q 159 156 162 129 q 166 103 176 87 q 187 72 199 66 q 211 61 227 61 q 257 61 274 80 q 291 98 297 133 q 303 168 303 252 l 227 252 l 227 325 l 386 325 z"},"q":{"x_min":0,"x_max":365,"ha":365,"o":"m 322 -189 l 242 -189 l 242 50 l 240 50 q 210 -7 160 -7 q 117 -7 86 31 q 55 70 55 199 q 55 256 62 317 q 68 377 95 405 q 122 433 161 433 q 212 433 241 374 l 243 374 l 243 427 l 322 427 z m 192 365 q 165 365 153 333 q 141 300 141 230 q 141 139 151 100 q 161 62 192 62 q 221 62 232 94 q 243 125 243 198 q 243 289 235 327 q 226 365 193 365 z"},"d":{"x_min":0,"x_max":365,"ha":365,"o":"m 242 644 l 322 644 l 322 0 l 243 0 l 243 57 l 241 57 q 212 -6 159 -6 q 128 -6 102 15 q 76 36 65 74 q 55 111 55 199 q 55 299 64 343 q 73 386 98 410 q 123 434 161 434 q 211 434 240 377 l 242 377 z m 243 220 q 243 299 233 332 q 223 365 193 365 q 163 365 151 331 q 140 296 140 216 q 140 133 151 97 q 161 62 191 62 q 220 62 232 99 q 243 136 243 220 z"},"1":{"x_min":0,"x_max":365,"ha":365,"o":"m 232 0 l 151 0 l 151 556 l 96 556 l 96 623 l 232 623 z"},"5":{"x_min":0,"x_max":365,"ha":365,"o":"m 323 546 l 182 546 l 162 405 q 322 390 322 217 q 322 120 270 56 q 218 -8 140 -8 q 94 -8 39 23 l 63 96 q 67 95 75 90 q 106 73 133 73 q 180 73 208 110 q 235 146 235 211 q 235 270 207 302 q 179 333 126 333 q 107 333 72 325 l 117 623 l 323 623 z"}}}
